<svg xmlns="http://www.w3.org/2000/svg" width="151" height="150" fill="none"><g clip-path="url(#a)"><path fill="#fff" d="M.5 0h150v150H.5z"/><path fill="url(#b)" d="M0 0h150.5v150.5H0z" transform="translate(.5 -.5)"/><path fill="#fff" fill-rule="evenodd" d="M61.64 30.07H47.532v61.14c0 16.884 13.687 30.571 30.57 30.571 16.884 0 30.571-13.687 30.571-30.57 0-16.884-13.687-30.57-30.57-30.57a30.425 30.425 0 0 0-16.461 4.805V30.07Zm30.57 61.14c0 7.793-6.316 14.11-14.108 14.11-7.793 0-14.11-6.317-14.11-14.11 0-7.791 6.317-14.108 14.11-14.108 7.792 0 14.109 6.316 14.109 14.109Z" clip-rule="evenodd"/><rect width="28.219" height="28.219" x="78.102" y="55.938" fill="url(#c)" rx="14.109" transform="rotate(-90 78.102 55.938)"/></g><defs><linearGradient id="b" x1="75.25" x2="75.25" y1="149.447" y2=".602" gradientUnits="userSpaceOnUse"><stop stop-color="#5A5A5A"/><stop offset=".146" stop-color="#484848"/><stop offset=".52" stop-color="#212121"/><stop offset=".817" stop-color="#080808"/><stop offset="1"/></linearGradient><linearGradient id="c" x1="82.25" x2="102.2" y1="60.057" y2="80.036" gradientUnits="userSpaceOnUse"><stop stop-color="#E52F08"/><stop offset="1" stop-color="#E94F96"/></linearGradient><clipPath id="a"><path fill="#fff" d="M.5 0h150v150H.5z"/></clipPath></defs></svg>