<svg xmlns="http://www.w3.org/2000/svg" viewBox="0 0 31 31" fill="none">
  <path fill="#211F1D" fill-rule="evenodd" clip-rule="evenodd" d="M0 15.128c0 -3.781 0 -5.671 0.457 -7.212A11.06 11.06 0 0 1 7.916 0.457C9.456 0 11.347 0 15.128 0s5.671 0 7.212 0.457a11.06 11.06 0 0 1 7.458 7.459c0.458 1.54 0.458 3.431 0.458 7.212s0 5.671 -0.458 7.212a11.06 11.06 0 0 1 -7.458 7.458c-1.54 0.458 -3.431 0.458 -7.212 0.458s-5.671 0 -7.212 -0.458A11.06 11.06 0 0 1 0.457 22.34C0 20.8 0 18.909 0 15.128m14.113 -6.351c0 4.77 -4.776 8.637 -10.67 8.637v4.065c7.016 0 12.703 -5.687 12.703 -12.702zm2.371 2.178a13.1 13.1 0 0 1 -1.07 3.435 12.7 12.7 0 0 0 11.398 7.089v-4.065c-4.963 0 -9.135 -2.743 -10.328 -6.46" />
</svg>
