<svg width="512" height="512" viewBox="0 0 512 512" fill="none" xmlns="http://www.w3.org/2000/svg">
<circle cx="256" cy="256" r="255" fill="#081F2C"/>
<path d="M83 359.586C113.417 387.811 166.498 406 217.789 406C300.691 406 349 363.349 349 305.645C349 225.361 276.238 212.817 227.332 204.036C196.915 198.391 181.408 193.373 181.408 179.574C181.408 166.402 196.318 158.876 217.789 158.876C252.381 158.876 285.184 174.556 302.48 192.118L337.668 128.142C306.655 104.308 265.502 88 217.193 88C137.274 88 93.7354 134.414 93.7354 187.728C93.7354 264.876 162.919 275.538 211.825 284.32C241.646 289.337 261.327 294.982 261.327 310.663C261.327 323.834 249.995 333.243 222.561 333.243C188.565 333.243 142.641 313.172 121.17 293.101L83 359.586Z" fill="white"/>
<path d="M437 366C437 388.273 419.273 406 397 406C374.727 406 357 388.273 357 366C357 343.727 374.727 326 397 326C419.273 326 437 343.727 437 366Z" fill="#D026AF"/>
</svg>
