<?xml version="1.0" standalone="no"?>
<!DOCTYPE svg PUBLIC "-//W3C//DTD SVG 20010904//EN"
 "http://www.w3.org/TR/2001/REC-SVG-20010904/DTD/svg10.dtd">
<svg version="1.0" xmlns="http://www.w3.org/2000/svg"
 width="256.000000pt" height="256.000000pt" viewBox="0 0 256.000000 256.000000"
 preserveAspectRatio="xMidYMid meet">

<g transform="translate(0.000000,256.000000) scale(0.100000,-0.100000)"
fill="#000000" stroke="none">
<path d="M2272 1463 c-12 -10 -24 -30 -27 -45 -6 -21 -2 -30 19 -43 28 -19 46
-13 46 16 0 10 4 19 10 19 15 0 160 -83 160 -92 0 -9 -140 -88 -157 -88 -6 0
-14 13 -18 30 -7 33 -39 60 -70 60 -31 0 -203 -98 -222 -126 -29 -45 -9 -71
97 -133 127 -73 177 -73 195 1 5 21 2 30 -19 43 -28 19 -46 13 -46 -16 0 -10
-4 -19 -10 -19 -19 0 -160 84 -157 93 4 14 150 96 160 90 4 -2 7 -13 7 -24 0
-27 44 -69 71 -69 32 0 207 98 226 127 29 44 9 71 -102 135 -108 62 -132 67
-163 41z"/>
<path d="M383 1460 c-25 -10 -43 -39 -43 -69 0 -12 -7 -21 -15 -21 -9 0 -15
-9 -15 -25 0 -16 6 -25 15 -25 12 0 15 -18 15 -100 l0 -100 35 0 35 0 0 100 0
100 40 0 40 0 0 -58 c0 -65 14 -122 32 -134 7 -4 28 -8 46 -8 27 0 32 4 32 23
0 12 -9 28 -20 35 -17 10 -20 23 -20 77 0 58 2 65 20 65 15 0 20 7 20 25 0 18
-5 25 -20 25 -15 0 -20 7 -20 29 0 24 -5 29 -30 33 -36 5 -40 3 -40 -34 0 -26
-3 -28 -41 -28 -36 0 -40 2 -37 23 2 14 11 23 26 25 17 3 22 9 20 25 -3 25
-38 32 -75 17z"/>
<path d="M95 1373 c-52 -14 -95 -71 -95 -128 0 -39 27 -91 58 -111 32 -21 104
-23 128 -3 13 11 18 11 21 2 3 -7 20 -13 39 -13 l34 0 0 125 0 125 -34 0 c-19
0 -36 -5 -38 -11 -2 -6 -14 -5 -33 5 -30 16 -45 18 -80 9z m90 -78 c32 -31 32
-69 0 -100 -30 -30 -54 -31 -89 -4 -36 28 -36 80 0 108 35 27 59 26 89 -4z"/>
<path d="M725 1373 c-56 -15 -95 -66 -95 -128 0 -92 79 -149 172 -125 40 11
88 49 88 70 0 15 -62 12 -84 -5 -11 -8 -29 -15 -41 -15 -26 0 -65 27 -65 46 0
11 20 14 100 14 95 0 100 1 100 21 0 80 -90 143 -175 122z m88 -75 l22 -23
-64 -3 c-35 -2 -66 -1 -69 2 -3 3 3 15 13 26 24 27 69 26 98 -2z"/>
<path d="M1037 1374 c-4 -4 -29 -6 -57 -5 l-50 1 0 -125 0 -125 35 0 35 0 0
89 c0 98 10 118 56 107 24 -6 25 -5 22 26 -3 31 -25 48 -41 32z"/>
<path d="M1213 1365 c-18 -8 -33 -10 -33 -5 0 6 -16 10 -35 10 l-35 0 2 -177
3 -178 33 -3 32 -3 0 64 0 65 43 -16 c40 -14 46 -14 82 4 73 36 102 110 70
177 -29 62 -101 90 -162 62z m81 -66 c19 -15 26 -30 26 -54 0 -36 -36 -75 -70
-75 -34 0 -70 39 -70 75 0 36 36 75 70 75 10 0 29 -9 44 -21z"/>
<path d="M1494 1366 c-96 -42 -107 -167 -21 -230 32 -24 98 -26 124 -5 13 11
17 11 20 2 3 -7 20 -13 39 -13 l34 0 0 125 0 125 -35 0 c-19 0 -35 -4 -35 -9
0 -6 -16 -3 -35 5 -42 17 -51 17 -91 0z m100 -67 c19 -15 26 -30 26 -54 0 -36
-36 -75 -70 -75 -34 0 -70 39 -70 75 0 36 36 75 70 75 10 0 29 -9 44 -21z"/>
<path d="M1720 1365 c0 -3 23 -51 51 -106 l50 -102 -26 -61 c-15 -33 -29 -67
-32 -74 -4 -10 3 -13 28 -10 38 3 30 -10 133 216 l65 142 -35 0 c-34 0 -36 -2
-67 -72 l-31 -71 -33 71 c-31 70 -34 72 -68 72 -19 0 -35 -2 -35 -5z"/>
</g>
</svg>
