<?xml version="1.0" standalone="no"?>
<!DOCTYPE svg PUBLIC "-//W3C//DTD SVG 20010904//EN"
 "http://www.w3.org/TR/2001/REC-SVG-20010904/DTD/svg10.dtd">
<svg version="1.0" xmlns="http://www.w3.org/2000/svg"
 width="256.000000pt" height="256.000000pt" viewBox="0 0 256.000000 256.000000"
 preserveAspectRatio="xMidYMid meet">

<g transform="translate(0.000000,256.000000) scale(0.100000,-0.100000)"
fill="#000000" stroke="none">
<path d="M0 1280 l0 -1280 1280 0 1280 0 0 1280 0 1280 -1280 0 -1280 0 0
-1280z m1820 755 c76 -20 144 -59 199 -115 74 -74 112 -149 131 -256 26 -148
-28 -297 -150 -413 -39 -37 -175 -105 -190 -96 -13 8 -13 221 0 246 6 10 16
19 21 19 6 0 21 12 33 27 94 118 67 271 -60 341 -41 22 -48 22 -388 22 l-346
0 0 -215 c0 -214 0 -215 23 -220 12 -3 101 -4 197 -3 l175 3 3 128 3 127 119
0 120 0 0 -544 0 -543 -23 -34 c-12 -18 -34 -39 -47 -46 -31 -16 -799 -18
-880 -3 -135 26 -269 130 -332 258 -31 64 -32 72 -33 187 0 104 3 127 24 174
46 108 131 198 227 243 97 45 98 43 102 -89 l3 -112 -32 -28 c-49 -43 -62 -59
-81 -105 -21 -53 -22 -94 -4 -146 21 -58 51 -95 99 -123 41 -24 46 -24 384
-29 280 -4 344 -3 348 8 3 8 5 108 5 223 l0 209 -200 0 -200 0 0 -125 c0 -93
-3 -125 -12 -126 -12 0 -187 0 -216 1 -19 0 -13 1073 6 1111 31 59 28 58 491
59 343 0 434 -3 481 -15z"/>
</g>
</svg>
